<svg width="16" height="16" viewBox="0 0 16 16" fill="none" xmlns="http://www.w3.org/2000/svg">
<path d="M4.66683 6.66667C6.00016 6.66667 6.66683 6 6.66683 4.66667V3.33333C6.66683 2 6.00016 1.33333 4.66683 1.33333H3.3335C2.00016 1.33333 1.3335 2 1.3335 3.33333V4.66667C1.3335 6 2.00016 6.66667 3.3335 6.66667H4.66683Z" stroke="#F9F9F9" stroke-linecap="round" stroke-linejoin="round"/>
<path d="M12.6668 6.66667C14.0002 6.66667 14.6668 6 14.6668 4.66667V3.33333C14.6668 2 14.0002 1.33333 12.6668 1.33333H11.3335C10.0002 1.33333 9.3335 2 9.3335 3.33333V4.66667C9.3335 6 10.0002 6.66667 11.3335 6.66667H12.6668Z" stroke="#F9F9F9" stroke-linecap="round" stroke-linejoin="round"/>
<path d="M12.6668 14.6667C14.0002 14.6667 14.6668 14 14.6668 12.6667V11.3333C14.6668 10 14.0002 9.33333 12.6668 9.33333H11.3335C10.0002 9.33333 9.3335 10 9.3335 11.3333V12.6667C9.3335 14 10.0002 14.6667 11.3335 14.6667H12.6668Z" stroke="#F9F9F9" stroke-linecap="round" stroke-linejoin="round"/>
<path d="M4.66683 14.6667C6.00016 14.6667 6.66683 14 6.66683 12.6667V11.3333C6.66683 10 6.00016 9.33333 4.66683 9.33333H3.3335C2.00016 9.33333 1.3335 10 1.3335 11.3333V12.6667C1.3335 14 2.00016 14.6667 3.3335 14.6667H4.66683Z" stroke="#F9F9F9" stroke-linecap="round" stroke-linejoin="round"/>
</svg>
