<svg width="16" height="16" viewBox="0 0 16 16" fill="none" xmlns="http://www.w3.org/2000/svg">
<path d="M4.66659 6.66665C5.99992 6.66665 6.66659 5.99998 6.66659 4.66665V3.33331C6.66659 1.99998 5.99992 1.33331 4.66659 1.33331H3.33325C1.99992 1.33331 1.33325 1.99998 1.33325 3.33331V4.66665C1.33325 5.99998 1.99992 6.66665 3.33325 6.66665H4.66659Z" stroke="#F9F9F9" stroke-linecap="round" stroke-linejoin="round"/>
<path d="M12.6666 6.66665C13.9999 6.66665 14.6666 5.99998 14.6666 4.66665V3.33331C14.6666 1.99998 13.9999 1.33331 12.6666 1.33331H11.3333C9.99992 1.33331 9.33325 1.99998 9.33325 3.33331V4.66665C9.33325 5.99998 9.99992 6.66665 11.3333 6.66665H12.6666Z" stroke="#F9F9F9" stroke-linecap="round" stroke-linejoin="round"/>
<path d="M12.6666 14.6666C13.9999 14.6666 14.6666 14 14.6666 12.6666V11.3333C14.6666 9.99998 13.9999 9.33331 12.6666 9.33331H11.3333C9.99992 9.33331 9.33325 9.99998 9.33325 11.3333V12.6666C9.33325 14 9.99992 14.6666 11.3333 14.6666H12.6666Z" stroke="#F9F9F9" stroke-linecap="round" stroke-linejoin="round"/>
<path d="M4.66659 14.6666C5.99992 14.6666 6.66659 14 6.66659 12.6666V11.3333C6.66659 9.99998 5.99992 9.33331 4.66659 9.33331H3.33325C1.99992 9.33331 1.33325 9.99998 1.33325 11.3333V12.6666C1.33325 14 1.99992 14.6666 3.33325 14.6666H4.66659Z" stroke="#F16001" stroke-linecap="round" stroke-linejoin="round"/>
</svg>
