<svg width="16" height="16" viewBox="0 0 16 16" fill="none" xmlns="http://www.w3.org/2000/svg">
<path d="M3.82969 2.87028C3.5582 2.59882 3.13281 2.59882 2.87037 2.87028C2.59888 3.14173 2.59888 3.59557 2.87037 3.86703L6.70743 7.66669L2.87037 11.4663C2.59888 11.7378 2.59888 12.1916 2.87037 12.4631C3.13281 12.7346 3.5582 12.7346 3.82969 12.4631L7.66675 8.66167L11.5038 12.4631C11.7753 12.7346 12.2007 12.7346 12.4631 12.4631C12.7346 12.1916 12.7346 11.7378 12.4631 11.4663L8.62607 7.66669L12.4631 3.86703C12.7346 3.59557 12.7346 3.14173 12.4631 2.87028C12.2007 2.59882 11.7753 2.59882 11.5038 2.87028L7.66675 6.67171L3.82969 2.87028Z" fill="#4F4F4F"/>
</svg>
