<svg width="16" height="16" viewBox="0 0 16 16" fill="none" xmlns="http://www.w3.org/2000/svg">
<path fill-rule="evenodd" clip-rule="evenodd" d="M6.3407 15.1066C6.07404 15.0066 5.6207 14.6799 5.6207 13.6466V9.3466H4.0607C3.16737 9.3466 2.84737 8.9266 2.73404 8.67993C2.6207 8.4266 2.5207 7.91326 3.10737 7.23993L8.15404 1.50659C8.83404 0.733261 9.38737 0.786595 9.65404 0.886595C9.9207 0.986595 10.374 1.31326 10.374 2.34659V6.6466H11.934C12.8274 6.6466 13.1474 7.0666 13.2607 7.31326C13.374 7.5666 13.474 8.07993 12.8874 8.75326L7.8407 14.4866C7.36737 15.0266 6.95404 15.1666 6.6607 15.1666C6.52737 15.1666 6.4207 15.1399 6.3407 15.1066ZM8.90737 2.17326L3.8607 7.90659C3.67404 8.11993 3.64737 8.25326 3.64737 8.27993C3.6607 8.28659 3.7807 8.35326 4.0607 8.35326H6.1207C6.39404 8.35326 6.6207 8.57993 6.6207 8.85326V13.6533C6.6207 13.9866 6.6807 14.1333 6.70737 14.1733C6.72737 14.1466 6.86737 14.0799 7.08737 13.8266L12.134 8.09326C12.3207 7.87993 12.3474 7.74659 12.3474 7.71993C12.334 7.71326 12.214 7.6466 11.934 7.6466H9.87404C9.6007 7.6466 9.37404 7.41993 9.37404 7.1466V2.34659C9.3807 2.01326 9.31404 1.87326 9.28737 1.82659C9.26737 1.85326 9.12737 1.91993 8.90737 2.17326Z" fill="#F9F9F9"/>
</svg>
