<svg width="29" height="29" viewBox="0 0 29 29" fill="none" xmlns="http://www.w3.org/2000/svg">
<path d="M14.5 3.30931C18.1714 3.30931 18.6062 3.32329 20.0561 3.38944C21.3967 3.45062 22.1248 3.67462 22.6094 3.86287C23.2511 4.11231 23.7092 4.41032 24.1903 4.89145C24.6715 5.37257 24.9695 5.83067 25.2189 6.47243C25.4072 6.957 25.6312 7.68505 25.6923 9.02561C25.7585 10.4755 25.7725 10.9104 25.7725 14.5818C25.7725 18.2532 25.7585 18.6881 25.6923 20.138C25.6312 21.4786 25.4072 22.2066 25.2189 22.6912C24.9695 23.333 24.6715 23.7911 24.1903 24.2722C23.7092 24.7533 23.2511 25.0513 22.6094 25.3007C22.1248 25.489 21.3967 25.713 20.0561 25.7742C18.6065 25.8403 18.1716 25.8543 14.5 25.8543C10.8283 25.8543 10.3935 25.8403 8.94382 25.7742C7.60321 25.713 6.87516 25.489 6.39064 25.3007C5.74883 25.0513 5.29073 24.7533 4.8096 24.2722C4.32848 23.7911 4.03046 23.333 3.78109 22.6912C3.59278 22.2066 3.36878 21.4786 3.3076 20.138C3.24145 18.6881 3.22747 18.2532 3.22747 14.5818C3.22747 10.9104 3.24145 10.4755 3.3076 9.02566C3.36878 7.68505 3.59278 6.957 3.78109 6.47243C4.03046 5.83067 4.32848 5.37257 4.8096 4.89145C5.29073 4.41032 5.74883 4.11231 6.39064 3.86287C6.87516 3.67462 7.60321 3.45062 8.94376 3.38944C10.3937 3.32329 10.8285 3.30931 14.5 3.30931ZM14.5 0.831787C10.7657 0.831787 10.2975 0.847616 8.83089 0.914531C7.36731 0.981338 6.36783 1.21374 5.49317 1.55367C4.58899 1.90506 3.82218 2.37522 3.05778 3.13962C2.29338 3.90403 1.82322 4.67083 1.47183 5.57501C1.1319 6.44967 0.899497 7.44915 0.83269 8.91273C0.765774 10.3793 0.75 10.8475 0.75 14.5818C0.75 18.3161 0.765774 18.7844 0.83269 20.2509C0.899497 21.7145 1.1319 22.714 1.47183 23.5886C1.82322 24.4927 2.29338 25.2596 3.05778 26.024C3.82218 26.7884 4.58899 27.2586 5.49317 27.61C6.36783 27.9499 7.36731 28.1823 8.83089 28.2491C10.2975 28.316 10.7657 28.3318 14.5 28.3318C18.2343 28.3318 18.7025 28.316 20.1691 28.2491C21.6326 28.1823 22.6321 27.9499 23.5068 27.61C24.411 27.2586 25.1778 26.7884 25.9422 26.024C26.7066 25.2596 27.1767 24.4928 27.5281 23.5886C27.868 22.714 28.1004 21.7145 28.1673 20.2509C28.2342 18.7844 28.25 18.3161 28.25 14.5818C28.25 10.8475 28.2342 10.3793 28.1673 8.91273C28.1004 7.44915 27.868 6.44967 27.5281 5.57501C27.1767 4.67083 26.7066 3.90403 25.9422 3.13962C25.1778 2.37522 24.411 1.90506 23.5068 1.55367C22.6321 1.21374 21.6326 0.981338 20.1691 0.914531C18.7025 0.847616 18.2343 0.831787 14.5 0.831787ZM14.5 7.52098C10.6004 7.52098 7.43914 10.6822 7.43914 14.5818C7.43914 18.4814 10.6004 21.6426 14.5 21.6426C18.3995 21.6426 21.5608 18.4814 21.5608 14.5818C21.5608 10.6822 18.3995 7.52098 14.5 7.52098ZM14.5 19.1652C11.9687 19.1652 9.91661 17.1131 9.91661 14.5818C9.91661 12.0505 11.9687 9.99845 14.5 9.99845C17.0313 9.99845 19.0833 12.0505 19.0833 14.5818C19.0833 17.1131 17.0313 19.1652 14.5 19.1652ZM23.4897 7.24202C23.4897 8.1533 22.751 8.89205 21.8398 8.89205C20.9285 8.89205 20.1897 8.1533 20.1897 7.24202C20.1897 6.33074 20.9285 5.59204 21.8398 5.59204C22.751 5.59204 23.4897 6.33074 23.4897 7.24202Z" fill="#F9F9F9"/>
</svg>
