<svg width="208" height="24" viewBox="0 0 208 24" fill="none" xmlns="http://www.w3.org/2000/svg">
<path d="M39.6641 0H55.5298L41.8276 23H25.962L39.6641 0Z" fill="#F16001"/>
<path d="M25.2408 0H36.7795L23.0773 23H11.5387L25.2408 0Z" fill="#FF9736"/>
<path d="M13.7022 0H22.3561L8.65399 23H0L13.7022 0Z" fill="#FFBC7D"/>
<path d="M66.5405 21.551C65.5251 21.551 64.5374 21.4498 63.5774 21.2474C62.6359 21.045 61.7682 20.7782 60.9743 20.447C60.1989 20.0974 59.5527 19.711 59.0358 19.2878L60.5589 16.4726C61.0943 16.9142 61.7035 17.2914 62.3866 17.6042C63.0697 17.917 63.7897 18.1562 64.5467 18.3218C65.3221 18.4874 66.0975 18.5702 66.8729 18.5702C67.8144 18.5702 68.636 18.4598 69.3375 18.239C70.0391 18.0182 70.5745 17.7054 70.9437 17.3006C71.3314 16.8958 71.5252 16.4082 71.5252 15.8378C71.5252 15.3226 71.3499 14.9086 70.9991 14.5958C70.6483 14.2646 70.1775 13.9978 69.5867 13.7954C69.0144 13.5746 68.3775 13.3722 67.6759 13.1882C66.9929 12.9858 66.3005 12.765 65.599 12.5258C64.8974 12.2682 64.2605 11.9554 63.6882 11.5874C63.1159 11.201 62.6451 10.7134 62.2759 10.1246C61.9251 9.5358 61.7497 8.7998 61.7497 7.9166C61.7497 6.647 62.1005 5.5522 62.802 4.6322C63.522 3.6938 64.5097 2.967 65.7651 2.4518C67.039 1.9366 68.516 1.679 70.196 1.679C71.4514 1.679 72.6422 1.817 73.7684 2.093C74.8945 2.369 75.8638 2.7738 76.6761 3.3074L75.2638 6.1502C74.5438 5.6718 73.7314 5.3038 72.8268 5.0462C71.9222 4.7886 70.9806 4.6598 70.0021 4.6598C69.0421 4.6598 68.2113 4.7794 67.5098 5.0186C66.8082 5.2578 66.2729 5.589 65.9036 6.0122C65.5344 6.4354 65.3405 6.9322 65.3221 7.5026C65.3221 8.0362 65.4975 8.4686 65.8482 8.7998C66.199 9.1126 66.6605 9.3794 67.2329 9.6002C67.8052 9.821 68.4421 10.0326 69.1437 10.235C69.8452 10.419 70.5375 10.6306 71.2206 10.8698C71.9222 11.109 72.5683 11.4126 73.1591 11.7806C73.7499 12.1486 74.2207 12.6178 74.5714 13.1882C74.9222 13.7402 75.0976 14.4394 75.0976 15.2858C75.0976 16.5554 74.7376 17.6594 74.0176 18.5978C73.316 19.5362 72.3191 20.263 71.0268 20.7782C69.7529 21.2934 68.2575 21.551 66.5405 21.551Z" fill="#F9F9F9"/>
<path d="M81.8244 16.6382L82.2951 12.4154L94.3692 1.955H98.9108L88.5537 10.925L86.2275 12.8294L81.8244 16.6382ZM77.6151 21.275L81.4921 1.955H85.0644L81.1874 21.275H77.6151ZM91.3784 21.275L85.4244 12.4706L87.8891 10.0418L95.3938 21.275H91.3784Z" fill="#F9F9F9"/>
<path d="M97.7897 21.275L101.667 1.955H105.267L101.39 21.275H97.7897Z" fill="#F9F9F9"/>
<path d="M106.633 21.275L110.51 1.955H113.473L122.307 16.9418L121.172 16.8038L124.135 1.955H127.707L123.83 21.275H120.867L112.061 6.2882L113.196 6.4262L110.205 21.275H106.633Z" fill="#F9F9F9"/>
<path d="M135.394 21.551C134.378 21.551 133.391 21.4498 132.431 21.2474C131.489 21.045 130.621 20.7782 129.828 20.447C129.052 20.0974 128.406 19.711 127.889 19.2878L129.412 16.4726C129.948 16.9142 130.557 17.2914 131.24 17.6042C131.923 17.917 132.643 18.1562 133.4 18.3218C134.175 18.4874 134.951 18.5702 135.726 18.5702C136.668 18.5702 137.489 18.4598 138.191 18.239C138.892 18.0182 139.428 17.7054 139.797 17.3006C140.185 16.8958 140.379 16.4082 140.379 15.8378C140.379 15.3226 140.203 14.9086 139.852 14.5958C139.502 14.2646 139.031 13.9978 138.44 13.7954C137.868 13.5746 137.231 13.3722 136.529 13.1882C135.846 12.9858 135.154 12.765 134.452 12.5258C133.751 12.2682 133.114 11.9554 132.542 11.5874C131.969 11.201 131.498 10.7134 131.129 10.1246C130.778 9.5358 130.603 8.7998 130.603 7.9166C130.603 6.647 130.954 5.5522 131.655 4.6322C132.375 3.6938 133.363 2.967 134.618 2.4518C135.892 1.9366 137.369 1.679 139.049 1.679C140.305 1.679 141.496 1.817 142.622 2.093C143.748 2.369 144.717 2.7738 145.529 3.3074L144.117 6.1502C143.397 5.6718 142.585 5.3038 141.68 5.0462C140.775 4.7886 139.834 4.6598 138.855 4.6598C137.895 4.6598 137.065 4.7794 136.363 5.0186C135.662 5.2578 135.126 5.589 134.757 6.0122C134.388 6.4354 134.194 6.9322 134.175 7.5026C134.175 8.0362 134.351 8.4686 134.702 8.7998C135.052 9.1126 135.514 9.3794 136.086 9.6002C136.659 9.821 137.295 10.0326 137.997 10.235C138.699 10.419 139.391 10.6306 140.074 10.8698C140.775 11.109 141.422 11.4126 142.012 11.7806C142.603 12.1486 143.074 12.6178 143.425 13.1882C143.776 13.7402 143.951 14.4394 143.951 15.2858C143.951 16.5554 143.591 17.6594 142.871 18.5978C142.169 19.5362 141.172 20.263 139.88 20.7782C138.606 21.2934 137.111 21.551 135.394 21.551Z" fill="#F9F9F9"/>
<path d="M156.299 21.551C154.324 21.551 152.635 21.2014 151.232 20.5022C149.828 19.803 148.748 18.837 147.991 17.6042C147.253 16.353 146.884 14.9178 146.884 13.2986C146.884 11.661 147.161 10.143 147.715 8.7446C148.287 7.3278 149.099 6.095 150.152 5.0462C151.204 3.9974 152.459 3.1786 153.918 2.5898C155.376 1.9826 157.01 1.679 158.819 1.679C160.499 1.679 161.976 1.955 163.25 2.507C164.524 3.059 165.503 3.8594 166.186 4.9082L163.583 7.0886C163.047 6.3526 162.364 5.7914 161.533 5.405C160.702 5.0186 159.715 4.8254 158.57 4.8254C157.333 4.8254 156.216 5.037 155.219 5.4602C154.222 5.8834 153.373 6.4814 152.672 7.2542C151.97 8.0086 151.435 8.8918 151.065 9.9038C150.696 10.8974 150.512 11.9554 150.512 13.0778C150.512 14.1266 150.742 15.0558 151.204 15.8654C151.665 16.675 152.348 17.3006 153.253 17.7422C154.158 18.1838 155.265 18.4046 156.576 18.4046C157.665 18.4046 158.672 18.2206 159.595 17.8526C160.536 17.4846 161.367 16.9234 162.087 16.169L164.192 18.4322C163.25 19.4994 162.096 20.2906 160.73 20.8058C159.382 21.3026 157.905 21.551 156.299 21.551Z" fill="#F9F9F9"/>
<path d="M163.442 21.275L176.042 1.955H179.614L184.433 21.275H180.86L176.817 3.8042H178.257L167.291 21.275H163.442ZM168.371 16.8038L169.894 13.9886H180.334L180.805 16.8038H168.371Z" fill="#F9F9F9"/>
<path d="M186.926 21.275L190.803 1.955H193.766L202.6 16.9418L201.464 16.8038L204.428 1.955H208L204.123 21.275H201.16L192.354 6.2882L193.489 6.4262L190.498 21.275H186.926Z" fill="#F9F9F9"/>
</svg>
