<svg width="16" height="17" viewBox="0 0 16 17" fill="none" xmlns="http://www.w3.org/2000/svg">
<path fill-rule="evenodd" clip-rule="evenodd" d="M6.70025 11.72L6.22025 10.28L4.78025 9.80005C2.14025 8.92005 1.58691 7.80671 1.58691 7.02005C1.58691 6.24005 2.14025 5.12005 4.78025 4.23338L10.4402 2.34671C11.8536 1.87338 13.0336 2.01338 13.7602 2.73338C14.4869 3.45338 14.6269 4.64005 14.1536 6.05338L12.2669 11.7134C11.3802 14.3667 10.2669 14.92 9.48025 14.92C8.69358 14.92 7.58025 14.3667 6.70025 11.72ZM2.58025 7.02005C2.58025 7.50005 3.24025 8.23338 5.09358 8.84671L6.77358 9.40671C6.92025 9.45338 7.04025 9.57338 7.08691 9.72005L7.64691 11.4C8.26025 13.2534 9.00025 13.9134 9.48025 13.9134C9.96025 13.9134 10.6936 13.2534 11.3136 11.4L13.2002 5.74005C13.5402 4.71338 13.4802 3.87338 13.0469 3.44005C12.6136 3.00671 11.7736 2.95338 10.7536 3.29338L5.09358 5.18671C3.24025 5.80671 2.58025 6.54005 2.58025 7.02005Z" fill="#F9F9F9"/>
<path d="M6.38719 9.95334C6.19385 9.76001 6.19385 9.44001 6.38719 9.24668L8.77385 6.85334C8.96719 6.66001 9.28719 6.66001 9.48052 6.85334C9.67385 7.04668 9.67385 7.36668 9.48052 7.56001L7.09385 9.95334C7.00052 10.0533 6.86719 10.1 6.74052 10.1C6.61385 10.1 6.48719 10.0533 6.38719 9.95334Z" fill="#F9F9F9"/>
</svg>
