<svg width="29" height="29" viewBox="0 0 29 29" fill="none" xmlns="http://www.w3.org/2000/svg">
<g clip-path="url(#clip0_418_863)">
<path d="M24.184 5.45161C22.3914 4.62909 20.4691 4.02309 18.4593 3.67602C18.4227 3.66932 18.3861 3.68606 18.3672 3.71954C18.12 4.15924 17.8462 4.73287 17.6544 5.18375C15.4927 4.86011 13.342 4.86011 11.2246 5.18375C11.0328 4.72285 10.749 4.15924 10.5007 3.71954C10.4818 3.68717 10.4453 3.67044 10.4087 3.67602C8.39989 4.02199 6.47761 4.62798 4.68391 5.45161C4.66838 5.4583 4.65507 5.46947 4.64624 5.48397C1.00007 10.9313 0.00123021 16.2447 0.491227 21.4922C0.493444 21.5179 0.507855 21.5424 0.52781 21.558C2.93345 23.3247 5.26372 24.3972 7.55072 25.1081C7.58732 25.1193 7.6261 25.1059 7.64939 25.0757C8.19038 24.337 8.67263 23.558 9.0861 22.7388C9.11051 22.6908 9.08721 22.6339 9.03734 22.6149C8.27242 22.3247 7.54406 21.971 6.84343 21.5692C6.78801 21.5368 6.78358 21.4576 6.83456 21.4196C6.982 21.3092 7.12948 21.1942 7.27026 21.0781C7.29573 21.0569 7.33122 21.0525 7.36117 21.0659C11.964 23.1673 16.9471 23.1673 21.4956 21.0659C21.5256 21.0514 21.5611 21.0558 21.5877 21.077C21.7285 21.1931 21.8759 21.3092 22.0245 21.4196C22.0755 21.4576 22.0721 21.5368 22.0167 21.5692C21.3161 21.9788 20.5877 22.3247 19.8217 22.6138C19.7718 22.6328 19.7496 22.6908 19.774 22.7388C20.1964 23.5568 20.6786 24.3358 21.2096 25.0746C21.2318 25.1059 21.2717 25.1193 21.3083 25.1081C23.6064 24.3972 25.9367 23.3247 28.3423 21.558C28.3634 21.5424 28.3767 21.519 28.3789 21.4933C28.9653 15.4266 27.3967 10.1568 24.2206 5.48508C24.2128 5.46947 24.1995 5.4583 24.184 5.45161ZM9.77346 18.297C8.38769 18.297 7.24586 17.0248 7.24586 15.4623C7.24586 13.8999 8.36555 12.6276 9.77346 12.6276C11.1924 12.6276 12.3232 13.9111 12.301 15.4623C12.301 17.0248 11.1813 18.297 9.77346 18.297ZM19.1188 18.297C17.7331 18.297 16.5913 17.0248 16.5913 15.4623C16.5913 13.8999 17.7109 12.6276 19.1188 12.6276C20.5379 12.6276 21.6686 13.9111 21.6465 15.4623C21.6465 17.0248 20.5379 18.297 19.1188 18.297Z" fill="#F9F9F9"/>
</g>
<defs>
<clipPath id="clip0_418_863">
<rect width="28.125" height="28.125" fill="white" transform="translate(0.375 0.581787)"/>
</clipPath>
</defs>
</svg>
