<svg width="33" height="26" viewBox="0 0 33 26" fill="none" xmlns="http://www.w3.org/2000/svg">
<path d="M18.3131 7.41978C18.3131 7.45223 18.3131 7.48468 18.3147 7.51514L13.5837 14.3713C12.8173 14.3366 12.0483 14.4707 11.3191 14.7704C10.9976 14.9011 10.6964 15.0617 10.4138 15.2472L0.0252429 10.9807C0.0253242 10.9807 -0.215142 14.926 0.78664 17.8663L8.13078 20.8895C8.49953 22.5335 9.63 23.9755 11.2978 24.6692C14.0266 25.8066 17.173 24.5103 18.3081 21.7868C18.6035 21.0749 18.7412 20.3282 18.7213 19.5832L25.4906 14.7571C25.5453 14.7588 25.6018 14.7604 25.6565 14.7604C29.7075 14.7604 33 11.4658 33 7.41978C33 3.37347 29.7075 0.0817871 25.6565 0.0817871C21.6072 0.0817871 18.3131 3.37347 18.3131 7.41978ZM17.1779 21.3133C16.2994 23.4176 13.8754 24.4159 11.7685 23.5401C10.7965 23.1361 10.0626 22.3961 9.6393 21.5136L12.0299 22.502C13.5837 23.1477 15.3664 22.4126 16.0123 20.863C16.6602 19.3117 15.9251 17.5303 14.3721 16.8846L11.9009 15.8631C12.8545 15.5021 13.9385 15.4889 14.9513 15.9094C15.9724 16.3332 16.7647 17.1313 17.1846 18.1511C17.6044 19.171 17.6028 20.2968 17.1779 21.3133ZM25.6565 12.3101C22.9598 12.3101 20.7642 10.1164 20.7642 7.41978C20.7642 4.72527 22.9598 2.53093 25.6565 2.53093C28.3549 2.53093 30.5505 4.72527 30.5505 7.41978C30.5505 10.1164 28.3549 12.3101 25.6565 12.3101ZM21.9906 7.41233C21.9906 5.38371 23.6369 3.73837 25.6648 3.73837C27.6944 3.73837 29.3407 5.38371 29.3407 7.41233C29.3407 9.44111 27.6944 11.085 25.6648 11.085C23.6369 11.085 21.9906 9.44111 21.9906 7.41233Z" fill="#F9F9F9"/>
</svg>
