<svg width="27" height="28" viewBox="0 0 27 28" fill="none" xmlns="http://www.w3.org/2000/svg">
<path d="M26.7311 8.18181C26.7311 8.18181 26.4674 6.32029 25.6553 5.50291C24.627 4.42712 23.4773 4.42185 22.95 4.35857C19.1742 4.08435 13.5053 4.08435 13.5053 4.08435H13.4947C13.4947 4.08435 7.82578 4.08435 4.05 4.35857C3.52266 4.42185 2.37305 4.42712 1.34473 5.50291C0.532617 6.32029 0.274219 8.18181 0.274219 8.18181C0.274219 8.18181 0 10.3703 0 12.5535V14.5996C0 16.7828 0.268945 18.9713 0.268945 18.9713C0.268945 18.9713 0.532617 20.8328 1.33945 21.6502C2.36777 22.726 3.71777 22.689 4.31895 22.8051C6.48105 23.0107 13.5 23.074 13.5 23.074C13.5 23.074 19.1742 23.0635 22.95 22.7945C23.4773 22.7312 24.627 22.726 25.6553 21.6502C26.4674 20.8328 26.7311 18.9713 26.7311 18.9713C26.7311 18.9713 27 16.7881 27 14.5996V12.5535C27 10.3703 26.7311 8.18181 26.7311 8.18181ZM10.7104 17.0834V9.4949L18.0035 13.3023L10.7104 17.0834Z" fill="#F9F9F9"/>
</svg>
